<mxfile host="app.diagrams.net" modified="2024-03-07T06:20:00.602Z" agent="Mozilla/5.0 (Windows NT 10.0; Win64; x64) AppleWebKit/537.36 (KHTML, like Gecko) Chrome/121.0.0.0 Safari/537.36 Edg/121.0.0.0" version="22.1.18" etag="oPDOtlfn1uRx_suu9esD" type="github">
  <diagram name="第 1 页" id="jsU-mwkTw7CfBFSHCULO">
    <mxGraphModel>
      <root>
        <mxCell id="0" />
        <mxCell id="1" parent="0" />
      </root>
    </mxGraphModel>
  </diagram>
</mxfile>
